<svg width="29" height="39" viewBox="0 0 29 39" fill="none" xmlns="http://www.w3.org/2000/svg">
    <g clip-path="url(#clip0)">
        <path
            d="M0.509888 0.371416C3.18681 -0.433346 4.65274 0.185702 5.92747 1.98094C8.54066 5.57142 11.3451 9.03808 14.2769 12.8143C17.2725 8.97618 20.0769 5.57142 22.6901 1.91903C23.9648 0.123797 25.4308 -0.433346 27.9802 0.309511C25.3033 3.89999 22.9451 7.55237 20.1407 10.8333C17.3363 14.1143 15.9978 17.6428 16.5077 21.8524C16.7626 23.6476 16.5714 25.5667 16.5714 27.7333C15.1692 27.7952 13.9582 27.8571 12.3648 27.919C12.3648 25.5047 12.1736 23.3381 12.4286 21.2333C12.8747 17.3952 11.5363 14.3 9.05055 11.3905C6.05494 7.9857 3.44176 4.20951 0.509888 0.371416Z"
            fill="white" />
        <path
            d="M0.318726 1.98093C2.93191 4.64283 4.78026 6.99521 4.52532 10.7095C4.20664 16.2809 4.46158 21.8524 4.46158 27.7333C2.99565 27.7952 1.78466 27.8571 0.318726 27.919C0.318726 19.2524 0.318726 10.8333 0.318726 1.98093Z"
            fill="white" />
        <path
            d="M28.0439 27.919C26.7055 27.919 25.5582 27.919 23.9011 27.919C23.9011 22.6571 24.156 17.3952 23.8373 12.2571C23.5187 8.1714 24.7934 5.07617 28.0439 2.22855C28.0439 10.7714 28.0439 19.1905 28.0439 27.919Z"
            fill="white" />
        <path
            d="M28.7451 39C19.2484 39 9.75165 39 0.254945 39C0.191209 38.7524 0.0637363 38.5666 0 38.319C0.637363 38.0095 1.27473 37.3905 1.91209 37.3905C10.3253 37.3285 18.7385 37.3285 27.0879 37.3905C27.7253 37.3905 28.3626 37.9476 29 38.2571C28.9363 38.5047 28.8725 38.7524 28.7451 39Z"
            fill="white" />
    </g>
    <defs>
        <clipPath id="clip0">
            <rect width="29" height="39" fill="white" />
        </clipPath>
    </defs>
</svg>