<svg width="14" height="15" viewBox="0 0 14 15" fill="none" xmlns="http://www.w3.org/2000/svg">
    <path
        d="M11 5.5V7.5V5.5ZM11 7.5V9.5V7.5ZM11 7.5H13H11ZM11 7.5H9H11ZM7.66667 4.16667C7.66667 4.87391 7.38572 5.55219 6.88562 6.05229C6.38552 6.55238 5.70724 6.83333 5 6.83333C4.29276 6.83333 3.61448 6.55238 3.11438 6.05229C2.61428 5.55219 2.33333 4.87391 2.33333 4.16667C2.33333 3.45942 2.61428 2.78115 3.11438 2.28105C3.61448 1.78095 4.29276 1.5 5 1.5C5.70724 1.5 6.38552 1.78095 6.88562 2.28105C7.38572 2.78115 7.66667 3.45942 7.66667 4.16667V4.16667ZM1 12.8333C1 11.7725 1.42143 10.7551 2.17157 10.0049C2.92172 9.25476 3.93913 8.83333 5 8.83333C6.06087 8.83333 7.07828 9.25476 7.82843 10.0049C8.57857 10.7551 9 11.7725 9 12.8333V13.5H1V12.8333Z"
        stroke="#F4F5F7" stroke-width="2" stroke-linecap="round" stroke-linejoin="round" />
</svg>